<?xml version="1.0" encoding="UTF-8" ?>
<svg version="1.1" width="2000" height="2000" xmlns="http://www.w3.org/2000/svg" shape-rendering="crispEdges">
<rect x="900" y="0" width="100" height="100" fill="#FF4D4D" />
<rect x="1000" y="0" width="100" height="100" fill="#FF4D4D" />
<rect x="700" y="100" width="100" height="100" fill="#FF5252" />
<rect x="800" y="100" width="100" height="100" fill="#FF4D4D" />
<rect x="900" y="100" width="100" height="100" fill="#FF4D4D" />
<rect x="1000" y="100" width="100" height="100" fill="#FF4D4D" />
<rect x="1100" y="100" width="100" height="100" fill="#FF4D4D" />
<rect x="500" y="200" width="100" height="100" fill="#FF4D4D" />
<rect x="600" y="200" width="100" height="100" fill="#FF4D4D" />
<rect x="700" y="200" width="100" height="100" fill="#FF4D4D" />
<rect x="800" y="200" width="100" height="100" fill="#FF4D4D" />
<rect x="900" y="200" width="100" height="100" fill="#FF4D4D" />
<rect x="1000" y="200" width="100" height="100" fill="#FF4D4D" />
<rect x="1100" y="200" width="100" height="100" fill="#FF4D4D" />
<rect x="1200" y="200" width="100" height="100" fill="#FF4D4D" />
<rect x="900" y="300" width="100" height="100" fill="#FF4D4D" />
<rect x="1000" y="300" width="100" height="100" fill="#FF4D4D" />
<rect x="1100" y="300" width="100" height="100" fill="#FF4D4D" />
<rect x="1200" y="300" width="100" height="100" fill="#FF4D4D" />
<rect x="800" y="400" width="100" height="100" fill="#FF4D4D" />
<rect x="900" y="400" width="100" height="100" fill="#FF4D4D" />
<rect x="1000" y="400" width="100" height="100" fill="#FF4D4D" />
<rect x="1100" y="400" width="100" height="100" fill="#FF4D4D" />
<rect x="1200" y="400" width="100" height="100" fill="#FF4D4D" />
<rect x="1300" y="400" width="100" height="100" fill="#FF4D4D" />
<rect x="800" y="500" width="100" height="100" fill="#FF4D4D" />
<rect x="900" y="500" width="100" height="100" fill="#FF4D4D" />
<rect x="1100" y="500" width="100" height="100" fill="#FF4D4D" />
<rect x="1200" y="500" width="100" height="100" fill="#FF4D4D" />
<rect x="1300" y="500" width="100" height="100" fill="#FF4D4D" />
<rect x="700" y="600" width="100" height="100" fill="#FF4D4D" />
<rect x="800" y="600" width="100" height="100" fill="#FF4D4D" />
<rect x="900" y="600" width="100" height="100" fill="#FF5454" />
<rect x="1100" y="600" width="100" height="100" fill="#FF4D4D" />
<rect x="1200" y="600" width="100" height="100" fill="#FF4D4D" />
<rect x="1300" y="600" width="100" height="100" fill="#FF4D4D" />
<rect x="700" y="700" width="100" height="100" fill="#FF4D4D" />
<rect x="800" y="700" width="100" height="100" fill="#FF4D4D" />
<rect x="1200" y="700" width="100" height="100" fill="#FF4D4D" />
<rect x="1300" y="700" width="100" height="100" fill="#FF4D4D" />
<rect x="1400" y="700" width="100" height="100" fill="#FF4D4D" />
<rect x="700" y="800" width="100" height="100" fill="#FF4D4D" />
<rect x="800" y="800" width="100" height="100" fill="#FF5151" />
<rect x="1200" y="800" width="100" height="100" fill="#FF4D4D" />
<rect x="1300" y="800" width="100" height="100" fill="#FF4D4D" />
<rect x="1400" y="800" width="100" height="100" fill="#FF5050" />
<rect x="600" y="900" width="100" height="100" fill="#FF4D4D" />
<rect x="700" y="900" width="100" height="100" fill="#FF4D4D" />
<rect x="1200" y="900" width="100" height="100" fill="#FF4D4D" />
<rect x="1300" y="900" width="100" height="100" fill="#FF4D4D" />
<rect x="1400" y="900" width="100" height="100" fill="#FF4D4D" />
<rect x="600" y="1000" width="100" height="100" fill="#FF4D4D" />
<rect x="700" y="1000" width="100" height="100" fill="#FF4D4D" />
<rect x="800" y="1000" width="100" height="100" fill="#FF4D4D" />
<rect x="900" y="1000" width="100" height="100" fill="#FF4D4D" />
<rect x="1000" y="1000" width="100" height="100" fill="#FF4D4D" />
<rect x="1100" y="1000" width="100" height="100" fill="#FF4D4D" />
<rect x="1200" y="1000" width="100" height="100" fill="#FF4D4D" />
<rect x="1300" y="1000" width="100" height="100" fill="#FF4D4D" />
<rect x="1400" y="1000" width="100" height="100" fill="#FF4D4D" />
<rect x="500" y="1100" width="100" height="100" fill="#FF4D4D" />
<rect x="600" y="1100" width="100" height="100" fill="#FF4D4D" />
<rect x="700" y="1100" width="100" height="100" fill="#FF4D4D" />
<rect x="800" y="1100" width="100" height="100" fill="#FF4D4D" />
<rect x="900" y="1100" width="100" height="100" fill="#FF4D4D" />
<rect x="1000" y="1100" width="100" height="100" fill="#FF4D4D" />
<rect x="1100" y="1100" width="100" height="100" fill="#FF4D4D" />
<rect x="1200" y="1100" width="100" height="100" fill="#FF4D4D" />
<rect x="1300" y="1100" width="100" height="100" fill="#FF4D4D" />
<rect x="1400" y="1100" width="100" height="100" fill="#FF4D4D" />
<rect x="500" y="1200" width="100" height="100" fill="#FF4D4D" />
<rect x="600" y="1200" width="100" height="100" fill="#FF4D4D" />
<rect x="1300" y="1200" width="100" height="100" fill="#FF4D4D" />
<rect x="1400" y="1200" width="100" height="100" fill="#FF4D4D" />
<rect x="1500" y="1200" width="100" height="100" fill="#FF4D4D" />
<rect x="400" y="1300" width="100" height="100" fill="#FF4D4D" />
<rect x="500" y="1300" width="100" height="100" fill="#FF4D4D" />
<rect x="600" y="1300" width="100" height="100" fill="#FF4D4D" />
<rect x="1300" y="1300" width="100" height="100" fill="#FF4D4D" />
<rect x="1400" y="1300" width="100" height="100" fill="#FF4D4D" />
<rect x="1500" y="1300" width="100" height="100" fill="#FF4D4D" />
<rect x="400" y="1400" width="100" height="100" fill="#FF4D4D" />
<rect x="500" y="1400" width="100" height="100" fill="#FF4D4D" />
<rect x="1300" y="1400" width="100" height="100" fill="#FF5F5F" />
<rect x="1400" y="1400" width="100" height="100" fill="#FF4D4D" />
<rect x="1500" y="1400" width="100" height="100" fill="#FF4D4D" />
<rect x="200" y="1500" width="100" height="100" fill="#FF4D4D" />
<rect x="300" y="1500" width="100" height="100" fill="#FF4D4D" />
<rect x="400" y="1500" width="100" height="100" fill="#FF4D4D" />
<rect x="1400" y="1500" width="100" height="100" fill="#FF4D4D" />
<rect x="1500" y="1500" width="100" height="100" fill="#FF4D4D" />
<rect x="1600" y="1500" width="100" height="100" fill="#FF4D4D" />
<rect x="100" y="1600" width="100" height="100" fill="#FF4D4D" />
<rect x="200" y="1600" width="100" height="100" fill="#FF4D4D" />
<rect x="300" y="1600" width="100" height="100" fill="#FF4D4D" />
<rect x="400" y="1600" width="100" height="100" fill="#FF4D4D" />
<rect x="500" y="1600" width="100" height="100" fill="#FF4D4D" />
<rect x="600" y="1600" width="100" height="100" fill="#FF4D4D" />
<rect x="1400" y="1600" width="100" height="100" fill="#FF4D4D" />
<rect x="1500" y="1600" width="100" height="100" fill="#FF4D4D" />
<rect x="1600" y="1600" width="100" height="100" fill="#FF4D4D" />
<rect x="0" y="1700" width="100" height="100" fill="#FF4D4D" />
<rect x="100" y="1700" width="100" height="100" fill="#FF4D4D" />
<rect x="200" y="1700" width="100" height="100" fill="#FF4D4D" />
<rect x="300" y="1700" width="100" height="100" fill="#FF4D4D" />
<rect x="400" y="1700" width="100" height="100" fill="#FF4D4D" />
<rect x="500" y="1700" width="100" height="100" fill="#FF4D4D" />
<rect x="1400" y="1700" width="100" height="100" fill="#FF4D4D" />
<rect x="1500" y="1700" width="100" height="100" fill="#FF4D4D" />
<rect x="1600" y="1700" width="100" height="100" fill="#FF4D4D" />
<rect x="1700" y="1700" width="100" height="100" fill="#FF4F4F" />
<rect x="1500" y="1800" width="100" height="100" fill="#FF4D4D" />
<rect x="1600" y="1800" width="100" height="100" fill="#FF4D4D" />
<rect x="1700" y="1800" width="100" height="100" fill="#FF4D4D" />
<rect x="1800" y="1800" width="100" height="100" fill="#FF5050" />
<rect x="1600" y="1900" width="100" height="100" fill="#FF4D4D" />
<rect x="1700" y="1900" width="100" height="100" fill="#FF4D4D" />
<rect x="1800" y="1900" width="100" height="100" fill="#FF4D4D" />
<rect x="1900" y="1900" width="100" height="100" fill="#FF5E5E" />
</svg>