<?xml version="1.0" encoding="UTF-8" ?>
<svg version="1.1" width="8900" height="2100" xmlns="http://www.w3.org/2000/svg" shape-rendering="crispEdges">
<rect x="900" y="0" width="100" height="100" fill="#FF4D4D" />
<rect x="1000" y="0" width="100" height="100" fill="#FF4D4D" />
<rect x="700" y="100" width="100" height="100" fill="#FF5252" />
<rect x="800" y="100" width="100" height="100" fill="#FF4D4D" />
<rect x="900" y="100" width="100" height="100" fill="#FF4D4D" />
<rect x="1000" y="100" width="100" height="100" fill="#FF4D4D" />
<rect x="1100" y="100" width="100" height="100" fill="#FF4D4D" />
<rect x="8400" y="100" width="100" height="100" fill="#FF4D4D" />
<rect x="8500" y="100" width="100" height="100" fill="#FF4D4D" />
<rect x="8600" y="100" width="100" height="100" fill="#FF4D4D" />
<rect x="8700" y="100" width="100" height="100" fill="#FF4D4D" />
<rect x="500" y="200" width="100" height="100" fill="#FF4D4D" />
<rect x="600" y="200" width="100" height="100" fill="#FF4D4D" />
<rect x="700" y="200" width="100" height="100" fill="#FF4D4D" />
<rect x="800" y="200" width="100" height="100" fill="#FF4D4D" />
<rect x="900" y="200" width="100" height="100" fill="#FF4D4D" />
<rect x="1000" y="200" width="100" height="100" fill="#FF4D4D" />
<rect x="1100" y="200" width="100" height="100" fill="#FF4D4D" />
<rect x="1200" y="200" width="100" height="100" fill="#FF4D4D" />
<rect x="3800" y="200" width="100" height="100" fill="#FF4D4D" />
<rect x="3900" y="200" width="100" height="100" fill="#FF4D4D" />
<rect x="4100" y="200" width="100" height="100" fill="#FF4D4D" />
<rect x="4200" y="200" width="100" height="100" fill="#FF4D4D" />
<rect x="4300" y="200" width="100" height="100" fill="#FF4D4D" />
<rect x="4400" y="200" width="100" height="100" fill="#FF4F4F" />
<rect x="6500" y="200" width="100" height="100" fill="#FF4D4D" />
<rect x="6600" y="200" width="100" height="100" fill="#FF4D4D" />
<rect x="6700" y="200" width="100" height="100" fill="#FF4D4D" />
<rect x="6800" y="200" width="100" height="100" fill="#FF4D4D" />
<rect x="8300" y="200" width="100" height="100" fill="#FF4D4D" />
<rect x="8400" y="200" width="100" height="100" fill="#FF4D4D" />
<rect x="8500" y="200" width="100" height="100" fill="#FF4D4D" />
<rect x="8600" y="200" width="100" height="100" fill="#FF4D4D" />
<rect x="8700" y="200" width="100" height="100" fill="#FF4D4D" />
<rect x="8800" y="200" width="100" height="100" fill="#FF4D4D" />
<rect x="900" y="300" width="100" height="100" fill="#FF4D4D" />
<rect x="1000" y="300" width="100" height="100" fill="#FF4D4D" />
<rect x="1100" y="300" width="100" height="100" fill="#FF4D4D" />
<rect x="1200" y="300" width="100" height="100" fill="#FF4D4D" />
<rect x="3700" y="300" width="100" height="100" fill="#FF4D4D" />
<rect x="3800" y="300" width="100" height="100" fill="#FF4D4D" />
<rect x="3900" y="300" width="100" height="100" fill="#FF4D4D" />
<rect x="4200" y="300" width="100" height="100" fill="#FF4D4D" />
<rect x="4300" y="300" width="100" height="100" fill="#FF4D4D" />
<rect x="4400" y="300" width="100" height="100" fill="#FF4D4D" />
<rect x="6600" y="300" width="100" height="100" fill="#FF4D4D" />
<rect x="6700" y="300" width="100" height="100" fill="#FF4D4D" />
<rect x="6800" y="300" width="100" height="100" fill="#FF4D4D" />
<rect x="8300" y="300" width="100" height="100" fill="#FF4D4D" />
<rect x="8400" y="300" width="100" height="100" fill="#FF4D4D" />
<rect x="8700" y="300" width="100" height="100" fill="#FF4D4D" />
<rect x="8800" y="300" width="100" height="100" fill="#FF4D4D" />
<rect x="800" y="400" width="100" height="100" fill="#FF4D4D" />
<rect x="900" y="400" width="100" height="100" fill="#FF4D4D" />
<rect x="1000" y="400" width="100" height="100" fill="#FF4D4D" />
<rect x="1100" y="400" width="100" height="100" fill="#FF4D4D" />
<rect x="1200" y="400" width="100" height="100" fill="#FF4D4D" />
<rect x="1300" y="400" width="100" height="100" fill="#FF4D4D" />
<rect x="3700" y="400" width="100" height="100" fill="#FF4D4D" />
<rect x="3800" y="400" width="100" height="100" fill="#FF4D4D" />
<rect x="3900" y="400" width="100" height="100" fill="#FF4D4D" />
<rect x="4200" y="400" width="100" height="100" fill="#FF5454" />
<rect x="4300" y="400" width="100" height="100" fill="#FF4D4D" />
<rect x="4400" y="400" width="100" height="100" fill="#FF4D4D" />
<rect x="6600" y="400" width="100" height="100" fill="#FF4D4D" />
<rect x="6700" y="400" width="100" height="100" fill="#FF4D4D" />
<rect x="6800" y="400" width="100" height="100" fill="#FF4D4D" />
<rect x="8300" y="400" width="100" height="100" fill="#FF4D4D" />
<rect x="8400" y="400" width="100" height="100" fill="#FF4D4D" />
<rect x="800" y="500" width="100" height="100" fill="#FF4D4D" />
<rect x="900" y="500" width="100" height="100" fill="#FF4D4D" />
<rect x="1100" y="500" width="100" height="100" fill="#FF4D4D" />
<rect x="1200" y="500" width="100" height="100" fill="#FF4D4D" />
<rect x="1300" y="500" width="100" height="100" fill="#FF4D4D" />
<rect x="3200" y="500" width="100" height="100" fill="#FF4D4D" />
<rect x="3300" y="500" width="100" height="100" fill="#FF4D4D" />
<rect x="3700" y="500" width="100" height="100" fill="#FF4D4D" />
<rect x="3800" y="500" width="100" height="100" fill="#FF4D4D" />
<rect x="3900" y="500" width="100" height="100" fill="#FF4D4D" />
<rect x="4000" y="500" width="100" height="100" fill="#FF4D4D" />
<rect x="4200" y="500" width="100" height="100" fill="#FF5454" />
<rect x="4300" y="500" width="100" height="100" fill="#FF4D4D" />
<rect x="4400" y="500" width="100" height="100" fill="#FF4D4D" />
<rect x="6100" y="500" width="100" height="100" fill="#FF4D4D" />
<rect x="6200" y="500" width="100" height="100" fill="#FF4D4D" />
<rect x="6600" y="500" width="100" height="100" fill="#FF4D4D" />
<rect x="6700" y="500" width="100" height="100" fill="#FF4D4D" />
<rect x="6800" y="500" width="100" height="100" fill="#FF4D4D" />
<rect x="8200" y="500" width="100" height="100" fill="#FF4D4D" />
<rect x="8300" y="500" width="100" height="100" fill="#FF4D4D" />
<rect x="8400" y="500" width="100" height="100" fill="#FF4D4D" />
<rect x="8500" y="500" width="100" height="100" fill="#FF4D4D" />
<rect x="700" y="600" width="100" height="100" fill="#FF4D4D" />
<rect x="800" y="600" width="100" height="100" fill="#FF4D4D" />
<rect x="900" y="600" width="100" height="100" fill="#FF5454" />
<rect x="1100" y="600" width="100" height="100" fill="#FF4D4D" />
<rect x="1200" y="600" width="100" height="100" fill="#FF4D4D" />
<rect x="1300" y="600" width="100" height="100" fill="#FF4D4D" />
<rect x="2100" y="600" width="100" height="100" fill="#FF4D4D" />
<rect x="2200" y="600" width="100" height="100" fill="#FF4D4D" />
<rect x="2400" y="600" width="100" height="100" fill="#FF4D4D" />
<rect x="2500" y="600" width="100" height="100" fill="#FF4D4D" />
<rect x="2600" y="600" width="100" height="100" fill="#FF5151" />
<rect x="3100" y="600" width="100" height="100" fill="#FF4D4D" />
<rect x="3200" y="600" width="100" height="100" fill="#FF4D4D" />
<rect x="3300" y="600" width="100" height="100" fill="#FF4D4D" />
<rect x="3400" y="600" width="100" height="100" fill="#FF4D4D" />
<rect x="3700" y="600" width="100" height="100" fill="#FF4D4D" />
<rect x="3800" y="600" width="100" height="100" fill="#FF4D4D" />
<rect x="3900" y="600" width="100" height="100" fill="#FF4D4D" />
<rect x="4000" y="600" width="100" height="100" fill="#FF4D4D" />
<rect x="4200" y="600" width="100" height="100" fill="#FF5454" />
<rect x="4300" y="600" width="100" height="100" fill="#FF4D4D" />
<rect x="4400" y="600" width="100" height="100" fill="#FF4D4D" />
<rect x="4600" y="600" width="100" height="100" fill="#FF4D4D" />
<rect x="4700" y="600" width="100" height="100" fill="#FF4D4D" />
<rect x="4800" y="600" width="100" height="100" fill="#FF4D4D" />
<rect x="5200" y="600" width="100" height="100" fill="#FF4D4D" />
<rect x="5300" y="600" width="100" height="100" fill="#FF4D4D" />
<rect x="5400" y="600" width="100" height="100" fill="#FF4D4D" />
<rect x="5500" y="600" width="100" height="100" fill="#FF4D4D" />
<rect x="6000" y="600" width="100" height="100" fill="#FF4D4D" />
<rect x="6100" y="600" width="100" height="100" fill="#FF4D4D" />
<rect x="6200" y="600" width="100" height="100" fill="#FF4D4D" />
<rect x="6300" y="600" width="100" height="100" fill="#FF4D4D" />
<rect x="6600" y="600" width="100" height="100" fill="#FF4D4D" />
<rect x="6700" y="600" width="100" height="100" fill="#FF4D4D" />
<rect x="6800" y="600" width="100" height="100" fill="#FF4D4D" />
<rect x="7000" y="600" width="100" height="100" fill="#FF4D4D" />
<rect x="7100" y="600" width="100" height="100" fill="#FF4D4D" />
<rect x="7200" y="600" width="100" height="100" fill="#FF4D4D" />
<rect x="7600" y="600" width="100" height="100" fill="#FF4D4D" />
<rect x="7700" y="600" width="100" height="100" fill="#FF4D4D" />
<rect x="7800" y="600" width="100" height="100" fill="#FF4D4D" />
<rect x="7900" y="600" width="100" height="100" fill="#FF4D4D" />
<rect x="8200" y="600" width="100" height="100" fill="#FF4D4D" />
<rect x="8300" y="600" width="100" height="100" fill="#FF4D4D" />
<rect x="8400" y="600" width="100" height="100" fill="#FF4D4D" />
<rect x="8500" y="600" width="100" height="100" fill="#FF4D4D" />
<rect x="700" y="700" width="100" height="100" fill="#FF4D4D" />
<rect x="800" y="700" width="100" height="100" fill="#FF4D4D" />
<rect x="1200" y="700" width="100" height="100" fill="#FF4D4D" />
<rect x="1300" y="700" width="100" height="100" fill="#FF4D4D" />
<rect x="1400" y="700" width="100" height="100" fill="#FF4D4D" />
<rect x="2000" y="700" width="100" height="100" fill="#FF5050" />
<rect x="2100" y="700" width="100" height="100" fill="#FF4D4D" />
<rect x="2200" y="700" width="100" height="100" fill="#FF4D4D" />
<rect x="2300" y="700" width="100" height="100" fill="#FF4D4D" />
<rect x="2400" y="700" width="100" height="100" fill="#FF4D4D" />
<rect x="2500" y="700" width="100" height="100" fill="#FF4D4D" />
<rect x="2600" y="700" width="100" height="100" fill="#FF4D4D" />
<rect x="2700" y="700" width="100" height="100" fill="#FF4D4D" />
<rect x="3000" y="700" width="100" height="100" fill="#FF4D4D" />
<rect x="3100" y="700" width="100" height="100" fill="#FF4D4D" />
<rect x="3200" y="700" width="100" height="100" fill="#FF4D4D" />
<rect x="3300" y="700" width="100" height="100" fill="#FF4D4D" />
<rect x="3400" y="700" width="100" height="100" fill="#FF4D4D" />
<rect x="3700" y="700" width="100" height="100" fill="#FF4D4D" />
<rect x="3800" y="700" width="100" height="100" fill="#FF4D4D" />
<rect x="4200" y="700" width="100" height="100" fill="#FF5454" />
<rect x="4300" y="700" width="100" height="100" fill="#FF4D4D" />
<rect x="4400" y="700" width="100" height="100" fill="#FF4D4D" />
<rect x="4500" y="700" width="100" height="100" fill="#FF4D4D" />
<rect x="4600" y="700" width="100" height="100" fill="#FF4D4D" />
<rect x="4700" y="700" width="100" height="100" fill="#FF4D4D" />
<rect x="4800" y="700" width="100" height="100" fill="#FF4D4D" />
<rect x="5200" y="700" width="100" height="100" fill="#FF4D4D" />
<rect x="5400" y="700" width="100" height="100" fill="#FF4D4D" />
<rect x="5500" y="700" width="100" height="100" fill="#FF4D4D" />
<rect x="5600" y="700" width="100" height="100" fill="#FF4D4D" />
<rect x="5900" y="700" width="100" height="100" fill="#FF4D4D" />
<rect x="6000" y="700" width="100" height="100" fill="#FF4D4D" />
<rect x="6100" y="700" width="100" height="100" fill="#FF4D4D" />
<rect x="6200" y="700" width="100" height="100" fill="#FF4D4D" />
<rect x="6600" y="700" width="100" height="100" fill="#FF4D4D" />
<rect x="6700" y="700" width="100" height="100" fill="#FF4D4D" />
<rect x="6800" y="700" width="100" height="100" fill="#FF4D4D" />
<rect x="6900" y="700" width="100" height="100" fill="#FF4E4E" />
<rect x="7000" y="700" width="100" height="100" fill="#FF4D4D" />
<rect x="7100" y="700" width="100" height="100" fill="#FF4D4D" />
<rect x="7200" y="700" width="100" height="100" fill="#FF4D4D" />
<rect x="7500" y="700" width="100" height="100" fill="#FF4D4D" />
<rect x="7600" y="700" width="100" height="100" fill="#FF4D4D" />
<rect x="7700" y="700" width="100" height="100" fill="#FF4D4D" />
<rect x="7800" y="700" width="100" height="100" fill="#FF4D4D" />
<rect x="7900" y="700" width="100" height="100" fill="#FF4D4D" />
<rect x="8300" y="700" width="100" height="100" fill="#FF4D4D" />
<rect x="8400" y="700" width="100" height="100" fill="#FF4D4D" />
<rect x="700" y="800" width="100" height="100" fill="#FF4D4D" />
<rect x="800" y="800" width="100" height="100" fill="#FF5151" />
<rect x="1200" y="800" width="100" height="100" fill="#FF4D4D" />
<rect x="1300" y="800" width="100" height="100" fill="#FF4D4D" />
<rect x="1400" y="800" width="100" height="100" fill="#FF5050" />
<rect x="2100" y="800" width="100" height="100" fill="#FF4D4D" />
<rect x="2200" y="800" width="100" height="100" fill="#FF4D4D" />
<rect x="2500" y="800" width="100" height="100" fill="#FF4D4D" />
<rect x="2600" y="800" width="100" height="100" fill="#FF4D4D" />
<rect x="2700" y="800" width="100" height="100" fill="#FF4D4D" />
<rect x="2900" y="800" width="100" height="100" fill="#FF5050" />
<rect x="3000" y="800" width="100" height="100" fill="#FF4D4D" />
<rect x="3100" y="800" width="100" height="100" fill="#FF4D4D" />
<rect x="3300" y="800" width="100" height="100" fill="#FF4D4D" />
<rect x="3400" y="800" width="100" height="100" fill="#FF4D4D" />
<rect x="3500" y="800" width="100" height="100" fill="#FF4D4D" />
<rect x="3700" y="800" width="100" height="100" fill="#FF4D4D" />
<rect x="3800" y="800" width="100" height="100" fill="#FF4D4D" />
<rect x="4200" y="800" width="100" height="100" fill="#FF5454" />
<rect x="4300" y="800" width="100" height="100" fill="#FF4D4D" />
<rect x="4400" y="800" width="100" height="100" fill="#FF4D4D" />
<rect x="4700" y="800" width="100" height="100" fill="#FF4D4D" />
<rect x="4800" y="800" width="100" height="100" fill="#FF4D4D" />
<rect x="5100" y="800" width="100" height="100" fill="#FF4D4D" />
<rect x="5200" y="800" width="100" height="100" fill="#FF4D4D" />
<rect x="5500" y="800" width="100" height="100" fill="#FF4D4D" />
<rect x="5600" y="800" width="100" height="100" fill="#FF4D4D" />
<rect x="5900" y="800" width="100" height="100" fill="#FF4D4D" />
<rect x="6000" y="800" width="100" height="100" fill="#FF4D4D" />
<rect x="6600" y="800" width="100" height="100" fill="#FF4D4D" />
<rect x="6700" y="800" width="100" height="100" fill="#FF4D4D" />
<rect x="6800" y="800" width="100" height="100" fill="#FF4D4D" />
<rect x="7100" y="800" width="100" height="100" fill="#FF4D4D" />
<rect x="7200" y="800" width="100" height="100" fill="#FF4D4D" />
<rect x="7500" y="800" width="100" height="100" fill="#FF4D4D" />
<rect x="7600" y="800" width="100" height="100" fill="#FF4D4D" />
<rect x="7800" y="800" width="100" height="100" fill="#FF4F4F" />
<rect x="7900" y="800" width="100" height="100" fill="#FF4D4D" />
<rect x="8000" y="800" width="100" height="100" fill="#FF4D4D" />
<rect x="8300" y="800" width="100" height="100" fill="#FF4D4D" />
<rect x="8400" y="800" width="100" height="100" fill="#FF4D4D" />
<rect x="600" y="900" width="100" height="100" fill="#FF4D4D" />
<rect x="700" y="900" width="100" height="100" fill="#FF4D4D" />
<rect x="1200" y="900" width="100" height="100" fill="#FF4D4D" />
<rect x="1300" y="900" width="100" height="100" fill="#FF4D4D" />
<rect x="1400" y="900" width="100" height="100" fill="#FF4D4D" />
<rect x="2100" y="900" width="100" height="100" fill="#FF4D4D" />
<rect x="2200" y="900" width="100" height="100" fill="#FF4D4D" />
<rect x="2600" y="900" width="100" height="100" fill="#FF4D4D" />
<rect x="2700" y="900" width="100" height="100" fill="#FF4D4D" />
<rect x="2900" y="900" width="100" height="100" fill="#FF4D4D" />
<rect x="3000" y="900" width="100" height="100" fill="#FF4D4D" />
<rect x="3400" y="900" width="100" height="100" fill="#FF4D4D" />
<rect x="3500" y="900" width="100" height="100" fill="#FF5858" />
<rect x="3700" y="900" width="100" height="100" fill="#FF4D4D" />
<rect x="3800" y="900" width="100" height="100" fill="#FF4D4D" />
<rect x="4200" y="900" width="100" height="100" fill="#FF5454" />
<rect x="4300" y="900" width="100" height="100" fill="#FF4D4D" />
<rect x="4400" y="900" width="100" height="100" fill="#FF4D4D" />
<rect x="4700" y="900" width="100" height="100" fill="#FF4D4D" />
<rect x="4800" y="900" width="100" height="100" fill="#FF4D4D" />
<rect x="5100" y="900" width="100" height="100" fill="#FF4D4D" />
<rect x="5200" y="900" width="100" height="100" fill="#FF4D4D" />
<rect x="5500" y="900" width="100" height="100" fill="#FF4D4D" />
<rect x="5600" y="900" width="100" height="100" fill="#FF4D4D" />
<rect x="5800" y="900" width="100" height="100" fill="#FF4D4D" />
<rect x="5900" y="900" width="100" height="100" fill="#FF4D4D" />
<rect x="6000" y="900" width="100" height="100" fill="#FF4D4D" />
<rect x="6600" y="900" width="100" height="100" fill="#FF4D4D" />
<rect x="6700" y="900" width="100" height="100" fill="#FF4D4D" />
<rect x="6800" y="900" width="100" height="100" fill="#FF4D4D" />
<rect x="7100" y="900" width="100" height="100" fill="#FF4D4D" />
<rect x="7200" y="900" width="100" height="100" fill="#FF4D4D" />
<rect x="7500" y="900" width="100" height="100" fill="#FF4D4D" />
<rect x="7600" y="900" width="100" height="100" fill="#FF4D4D" />
<rect x="7900" y="900" width="100" height="100" fill="#FF4D4D" />
<rect x="8300" y="900" width="100" height="100" fill="#FF4D4D" />
<rect x="8400" y="900" width="100" height="100" fill="#FF4D4D" />
<rect x="600" y="1000" width="100" height="100" fill="#FF4D4D" />
<rect x="700" y="1000" width="100" height="100" fill="#FF4D4D" />
<rect x="800" y="1000" width="100" height="100" fill="#FF4D4D" />
<rect x="900" y="1000" width="100" height="100" fill="#FF4D4D" />
<rect x="1000" y="1000" width="100" height="100" fill="#FF4D4D" />
<rect x="1100" y="1000" width="100" height="100" fill="#FF4D4D" />
<rect x="1200" y="1000" width="100" height="100" fill="#FF4D4D" />
<rect x="1300" y="1000" width="100" height="100" fill="#FF4D4D" />
<rect x="1400" y="1000" width="100" height="100" fill="#FF4D4D" />
<rect x="2100" y="1000" width="100" height="100" fill="#FF4D4D" />
<rect x="2200" y="1000" width="100" height="100" fill="#FF4D4D" />
<rect x="2600" y="1000" width="100" height="100" fill="#FF4D4D" />
<rect x="2700" y="1000" width="100" height="100" fill="#FF4D4D" />
<rect x="2900" y="1000" width="100" height="100" fill="#FF4D4D" />
<rect x="3000" y="1000" width="100" height="100" fill="#FF4D4D" />
<rect x="3400" y="1000" width="100" height="100" fill="#FF4D4D" />
<rect x="3500" y="1000" width="100" height="100" fill="#FF4D4D" />
<rect x="3700" y="1000" width="100" height="100" fill="#FF4D4D" />
<rect x="3800" y="1000" width="100" height="100" fill="#FF4D4D" />
<rect x="4200" y="1000" width="100" height="100" fill="#FF5454" />
<rect x="4300" y="1000" width="100" height="100" fill="#FF4D4D" />
<rect x="4400" y="1000" width="100" height="100" fill="#FF4D4D" />
<rect x="4700" y="1000" width="100" height="100" fill="#FF4D4D" />
<rect x="4800" y="1000" width="100" height="100" fill="#FF4D4D" />
<rect x="5100" y="1000" width="100" height="100" fill="#FF4D4D" />
<rect x="5200" y="1000" width="100" height="100" fill="#FF4D4D" />
<rect x="5300" y="1000" width="100" height="100" fill="#FF4D4D" />
<rect x="5400" y="1000" width="100" height="100" fill="#FF4D4D" />
<rect x="5800" y="1000" width="100" height="100" fill="#FF4D4D" />
<rect x="5900" y="1000" width="100" height="100" fill="#FF4D4D" />
<rect x="6600" y="1000" width="100" height="100" fill="#FF4D4D" />
<rect x="6700" y="1000" width="100" height="100" fill="#FF4D4D" />
<rect x="6800" y="1000" width="100" height="100" fill="#FF4D4D" />
<rect x="7100" y="1000" width="100" height="100" fill="#FF4D4D" />
<rect x="7200" y="1000" width="100" height="100" fill="#FF4D4D" />
<rect x="7400" y="1000" width="100" height="100" fill="#FF4D4D" />
<rect x="7500" y="1000" width="100" height="100" fill="#FF4D4D" />
<rect x="7600" y="1000" width="100" height="100" fill="#FF5151" />
<rect x="7700" y="1000" width="100" height="100" fill="#FF4D4D" />
<rect x="7800" y="1000" width="100" height="100" fill="#FF4E4E" />
<rect x="8300" y="1000" width="100" height="100" fill="#FF4D4D" />
<rect x="8400" y="1000" width="100" height="100" fill="#FF4D4D" />
<rect x="500" y="1100" width="100" height="100" fill="#FF4D4D" />
<rect x="600" y="1100" width="100" height="100" fill="#FF4D4D" />
<rect x="700" y="1100" width="100" height="100" fill="#FF4D4D" />
<rect x="800" y="1100" width="100" height="100" fill="#FF4D4D" />
<rect x="900" y="1100" width="100" height="100" fill="#FF4D4D" />
<rect x="1000" y="1100" width="100" height="100" fill="#FF4D4D" />
<rect x="1100" y="1100" width="100" height="100" fill="#FF4D4D" />
<rect x="1200" y="1100" width="100" height="100" fill="#FF4D4D" />
<rect x="1300" y="1100" width="100" height="100" fill="#FF4D4D" />
<rect x="1400" y="1100" width="100" height="100" fill="#FF4D4D" />
<rect x="2100" y="1100" width="100" height="100" fill="#FF4D4D" />
<rect x="2200" y="1100" width="100" height="100" fill="#FF4D4D" />
<rect x="2600" y="1100" width="100" height="100" fill="#FF4D4D" />
<rect x="2700" y="1100" width="100" height="100" fill="#FF4D4D" />
<rect x="2900" y="1100" width="100" height="100" fill="#FF4D4D" />
<rect x="3000" y="1100" width="100" height="100" fill="#FF4D4D" />
<rect x="3400" y="1100" width="100" height="100" fill="#FF4D4D" />
<rect x="3500" y="1100" width="100" height="100" fill="#FF4D4D" />
<rect x="3700" y="1100" width="100" height="100" fill="#FF4D4D" />
<rect x="3800" y="1100" width="100" height="100" fill="#FF4D4D" />
<rect x="4200" y="1100" width="100" height="100" fill="#FF5454" />
<rect x="4300" y="1100" width="100" height="100" fill="#FF4D4D" />
<rect x="4400" y="1100" width="100" height="100" fill="#FF4D4D" />
<rect x="4700" y="1100" width="100" height="100" fill="#FF4D4D" />
<rect x="4800" y="1100" width="100" height="100" fill="#FF4D4D" />
<rect x="5100" y="1100" width="100" height="100" fill="#FF4D4D" />
<rect x="5200" y="1100" width="100" height="100" fill="#FF4D4D" />
<rect x="5300" y="1100" width="100" height="100" fill="#FF4D4D" />
<rect x="5800" y="1100" width="100" height="100" fill="#FF4D4D" />
<rect x="5900" y="1100" width="100" height="100" fill="#FF4D4D" />
<rect x="6600" y="1100" width="100" height="100" fill="#FF4D4D" />
<rect x="6700" y="1100" width="100" height="100" fill="#FF4D4D" />
<rect x="6800" y="1100" width="100" height="100" fill="#FF4D4D" />
<rect x="7100" y="1100" width="100" height="100" fill="#FF4D4D" />
<rect x="7200" y="1100" width="100" height="100" fill="#FF4D4D" />
<rect x="7400" y="1100" width="100" height="100" fill="#FF4D4D" />
<rect x="7500" y="1100" width="100" height="100" fill="#FF4D4D" />
<rect x="7600" y="1100" width="100" height="100" fill="#FF4D4D" />
<rect x="7700" y="1100" width="100" height="100" fill="#FF4D4D" />
<rect x="8300" y="1100" width="100" height="100" fill="#FF4D4D" />
<rect x="8400" y="1100" width="100" height="100" fill="#FF4D4D" />
<rect x="500" y="1200" width="100" height="100" fill="#FF4D4D" />
<rect x="600" y="1200" width="100" height="100" fill="#FF4D4D" />
<rect x="1300" y="1200" width="100" height="100" fill="#FF4D4D" />
<rect x="1400" y="1200" width="100" height="100" fill="#FF4D4D" />
<rect x="1500" y="1200" width="100" height="100" fill="#FF4D4D" />
<rect x="2100" y="1200" width="100" height="100" fill="#FF4D4D" />
<rect x="2200" y="1200" width="100" height="100" fill="#FF4D4D" />
<rect x="2600" y="1200" width="100" height="100" fill="#FF4D4D" />
<rect x="2700" y="1200" width="100" height="100" fill="#FF4D4D" />
<rect x="2900" y="1200" width="100" height="100" fill="#FF4D4D" />
<rect x="3000" y="1200" width="100" height="100" fill="#FF4D4D" />
<rect x="3400" y="1200" width="100" height="100" fill="#FF4D4D" />
<rect x="3500" y="1200" width="100" height="100" fill="#FF4D4D" />
<rect x="3700" y="1200" width="100" height="100" fill="#FF4D4D" />
<rect x="3800" y="1200" width="100" height="100" fill="#FF4D4D" />
<rect x="4200" y="1200" width="100" height="100" fill="#FF5454" />
<rect x="4300" y="1200" width="100" height="100" fill="#FF4D4D" />
<rect x="4400" y="1200" width="100" height="100" fill="#FF4D4D" />
<rect x="4700" y="1200" width="100" height="100" fill="#FF4D4D" />
<rect x="4800" y="1200" width="100" height="100" fill="#FF4D4D" />
<rect x="5100" y="1200" width="100" height="100" fill="#FF4D4D" />
<rect x="5200" y="1200" width="100" height="100" fill="#FF4D4D" />
<rect x="5300" y="1200" width="100" height="100" fill="#FF4D4D" />
<rect x="5800" y="1200" width="100" height="100" fill="#FF4D4D" />
<rect x="5900" y="1200" width="100" height="100" fill="#FF4D4D" />
<rect x="6000" y="1200" width="100" height="100" fill="#FF4D4D" />
<rect x="6600" y="1200" width="100" height="100" fill="#FF4D4D" />
<rect x="6700" y="1200" width="100" height="100" fill="#FF4D4D" />
<rect x="6800" y="1200" width="100" height="100" fill="#FF4D4D" />
<rect x="7100" y="1200" width="100" height="100" fill="#FF4D4D" />
<rect x="7200" y="1200" width="100" height="100" fill="#FF4D4D" />
<rect x="7400" y="1200" width="100" height="100" fill="#FF4D4D" />
<rect x="7500" y="1200" width="100" height="100" fill="#FF4D4D" />
<rect x="7600" y="1200" width="100" height="100" fill="#FF4D4D" />
<rect x="8300" y="1200" width="100" height="100" fill="#FF4D4D" />
<rect x="8400" y="1200" width="100" height="100" fill="#FF4D4D" />
<rect x="400" y="1300" width="100" height="100" fill="#FF4D4D" />
<rect x="500" y="1300" width="100" height="100" fill="#FF4D4D" />
<rect x="600" y="1300" width="100" height="100" fill="#FF4D4D" />
<rect x="1300" y="1300" width="100" height="100" fill="#FF4D4D" />
<rect x="1400" y="1300" width="100" height="100" fill="#FF4D4D" />
<rect x="1500" y="1300" width="100" height="100" fill="#FF4D4D" />
<rect x="2100" y="1300" width="100" height="100" fill="#FF4D4D" />
<rect x="2200" y="1300" width="100" height="100" fill="#FF4D4D" />
<rect x="2500" y="1300" width="100" height="100" fill="#FF4D4D" />
<rect x="2600" y="1300" width="100" height="100" fill="#FF4D4D" />
<rect x="2700" y="1300" width="100" height="100" fill="#FF4D4D" />
<rect x="2900" y="1300" width="100" height="100" fill="#FF4D4D" />
<rect x="3000" y="1300" width="100" height="100" fill="#FF4D4D" />
<rect x="3100" y="1300" width="100" height="100" fill="#FF4D4D" />
<rect x="3300" y="1300" width="100" height="100" fill="#FF4D4D" />
<rect x="3400" y="1300" width="100" height="100" fill="#FF4D4D" />
<rect x="3500" y="1300" width="100" height="100" fill="#FF4D4D" />
<rect x="3700" y="1300" width="100" height="100" fill="#FF4D4D" />
<rect x="3800" y="1300" width="100" height="100" fill="#FF4D4D" />
<rect x="4200" y="1300" width="100" height="100" fill="#FF5454" />
<rect x="4300" y="1300" width="100" height="100" fill="#FF4D4D" />
<rect x="4400" y="1300" width="100" height="100" fill="#FF4D4D" />
<rect x="4700" y="1300" width="100" height="100" fill="#FF4D4D" />
<rect x="4800" y="1300" width="100" height="100" fill="#FF4D4D" />
<rect x="5100" y="1300" width="100" height="100" fill="#FF4E4E" />
<rect x="5200" y="1300" width="100" height="100" fill="#FF4D4D" />
<rect x="5300" y="1300" width="100" height="100" fill="#FF4D4D" />
<rect x="5900" y="1300" width="100" height="100" fill="#FF4D4D" />
<rect x="6000" y="1300" width="100" height="100" fill="#FF4D4D" />
<rect x="6100" y="1300" width="100" height="100" fill="#FF4D4D" />
<rect x="6600" y="1300" width="100" height="100" fill="#FF4D4D" />
<rect x="6700" y="1300" width="100" height="100" fill="#FF4D4D" />
<rect x="6800" y="1300" width="100" height="100" fill="#FF4D4D" />
<rect x="7100" y="1300" width="100" height="100" fill="#FF4D4D" />
<rect x="7200" y="1300" width="100" height="100" fill="#FF4D4D" />
<rect x="7500" y="1300" width="100" height="100" fill="#FF4D4D" />
<rect x="7600" y="1300" width="100" height="100" fill="#FF4D4D" />
<rect x="7700" y="1300" width="100" height="100" fill="#FF4D4D" />
<rect x="8300" y="1300" width="100" height="100" fill="#FF4D4D" />
<rect x="8400" y="1300" width="100" height="100" fill="#FF4D4D" />
<rect x="400" y="1400" width="100" height="100" fill="#FF4D4D" />
<rect x="500" y="1400" width="100" height="100" fill="#FF4D4D" />
<rect x="1300" y="1400" width="100" height="100" fill="#FF5F5F" />
<rect x="1400" y="1400" width="100" height="100" fill="#FF4D4D" />
<rect x="1500" y="1400" width="100" height="100" fill="#FF4D4D" />
<rect x="2100" y="1400" width="100" height="100" fill="#FF4D4D" />
<rect x="2200" y="1400" width="100" height="100" fill="#FF4D4D" />
<rect x="2300" y="1400" width="100" height="100" fill="#FF4F4F" />
<rect x="2400" y="1400" width="100" height="100" fill="#FF4F4F" />
<rect x="2500" y="1400" width="100" height="100" fill="#FF4D4D" />
<rect x="2600" y="1400" width="100" height="100" fill="#FF4D4D" />
<rect x="3000" y="1400" width="100" height="100" fill="#FF4D4D" />
<rect x="3100" y="1400" width="100" height="100" fill="#FF4D4D" />
<rect x="3200" y="1400" width="100" height="100" fill="#FF4D4D" />
<rect x="3300" y="1400" width="100" height="100" fill="#FF4D4D" />
<rect x="3400" y="1400" width="100" height="100" fill="#FF4D4D" />
<rect x="3500" y="1400" width="100" height="100" fill="#FF4E4E" />
<rect x="3700" y="1400" width="100" height="100" fill="#FF4D4D" />
<rect x="3800" y="1400" width="100" height="100" fill="#FF4D4D" />
<rect x="3900" y="1400" width="100" height="100" fill="#FF4D4D" />
<rect x="4000" y="1400" width="100" height="100" fill="#FF4D4D" />
<rect x="4200" y="1400" width="100" height="100" fill="#FF4D4D" />
<rect x="4300" y="1400" width="100" height="100" fill="#FF4D4D" />
<rect x="4400" y="1400" width="100" height="100" fill="#FF4D4D" />
<rect x="4700" y="1400" width="100" height="100" fill="#FF4D4D" />
<rect x="4800" y="1400" width="100" height="100" fill="#FF4D4D" />
<rect x="4900" y="1400" width="100" height="100" fill="#FF4D4D" />
<rect x="5200" y="1400" width="100" height="100" fill="#FF4D4D" />
<rect x="5300" y="1400" width="100" height="100" fill="#FF4D4D" />
<rect x="5400" y="1400" width="100" height="100" fill="#FF4D4D" />
<rect x="5500" y="1400" width="100" height="100" fill="#FF4D4D" />
<rect x="5700" y="1400" width="100" height="100" fill="#FF4D4D" />
<rect x="5900" y="1400" width="100" height="100" fill="#FF4D4D" />
<rect x="6000" y="1400" width="100" height="100" fill="#FF4D4D" />
<rect x="6100" y="1400" width="100" height="100" fill="#FF4D4D" />
<rect x="6200" y="1400" width="100" height="100" fill="#FF4D4D" />
<rect x="6300" y="1400" width="100" height="100" fill="#FF4D4D" />
<rect x="6400" y="1400" width="100" height="100" fill="#FF4D4D" />
<rect x="6600" y="1400" width="100" height="100" fill="#FF4D4D" />
<rect x="6700" y="1400" width="100" height="100" fill="#FF4D4D" />
<rect x="6800" y="1400" width="100" height="100" fill="#FF4D4D" />
<rect x="7100" y="1400" width="100" height="100" fill="#FF4D4D" />
<rect x="7200" y="1400" width="100" height="100" fill="#FF4D4D" />
<rect x="7500" y="1400" width="100" height="100" fill="#FF5050" />
<rect x="7600" y="1400" width="100" height="100" fill="#FF4D4D" />
<rect x="7700" y="1400" width="100" height="100" fill="#FF4D4D" />
<rect x="7800" y="1400" width="100" height="100" fill="#FF4D4D" />
<rect x="7900" y="1400" width="100" height="100" fill="#FF4D4D" />
<rect x="8000" y="1400" width="100" height="100" fill="#FF4D4D" />
<rect x="8300" y="1400" width="100" height="100" fill="#FF4D4D" />
<rect x="8400" y="1400" width="100" height="100" fill="#FF4D4D" />
<rect x="8500" y="1400" width="100" height="100" fill="#FF4D4D" />
<rect x="200" y="1500" width="100" height="100" fill="#FF4D4D" />
<rect x="300" y="1500" width="100" height="100" fill="#FF4D4D" />
<rect x="400" y="1500" width="100" height="100" fill="#FF4D4D" />
<rect x="1400" y="1500" width="100" height="100" fill="#FF4D4D" />
<rect x="1500" y="1500" width="100" height="100" fill="#FF4D4D" />
<rect x="1600" y="1500" width="100" height="100" fill="#FF4D4D" />
<rect x="2100" y="1500" width="100" height="100" fill="#FF4D4D" />
<rect x="2200" y="1500" width="100" height="100" fill="#FF4D4D" />
<rect x="2300" y="1500" width="100" height="100" fill="#FF4D4D" />
<rect x="2400" y="1500" width="100" height="100" fill="#FF4D4D" />
<rect x="2500" y="1500" width="100" height="100" fill="#FF4D4D" />
<rect x="3000" y="1500" width="100" height="100" fill="#FF4D4D" />
<rect x="3100" y="1500" width="100" height="100" fill="#FF4D4D" />
<rect x="3200" y="1500" width="100" height="100" fill="#FF4D4D" />
<rect x="3300" y="1500" width="100" height="100" fill="#FF4D4D" />
<rect x="3400" y="1500" width="100" height="100" fill="#FF4D4D" />
<rect x="3800" y="1500" width="100" height="100" fill="#FF4D4D" />
<rect x="3900" y="1500" width="100" height="100" fill="#FF4D4D" />
<rect x="4000" y="1500" width="100" height="100" fill="#FF4D4D" />
<rect x="4300" y="1500" width="100" height="100" fill="#FF4D4D" />
<rect x="4400" y="1500" width="100" height="100" fill="#FF4D4D" />
<rect x="4700" y="1500" width="100" height="100" fill="#FF4D4D" />
<rect x="4800" y="1500" width="100" height="100" fill="#FF4D4D" />
<rect x="4900" y="1500" width="100" height="100" fill="#FF4D4D" />
<rect x="5200" y="1500" width="100" height="100" fill="#FF4D4D" />
<rect x="5300" y="1500" width="100" height="100" fill="#FF4D4D" />
<rect x="5400" y="1500" width="100" height="100" fill="#FF4D4D" />
<rect x="5500" y="1500" width="100" height="100" fill="#FF4D4D" />
<rect x="5600" y="1500" width="100" height="100" fill="#FF4D4D" />
<rect x="6000" y="1500" width="100" height="100" fill="#FF4D4D" />
<rect x="6100" y="1500" width="100" height="100" fill="#FF4D4D" />
<rect x="6200" y="1500" width="100" height="100" fill="#FF4D4D" />
<rect x="6300" y="1500" width="100" height="100" fill="#FF5555" />
<rect x="6700" y="1500" width="100" height="100" fill="#FF4D4D" />
<rect x="6800" y="1500" width="100" height="100" fill="#FF4D4D" />
<rect x="7100" y="1500" width="100" height="100" fill="#FF4D4D" />
<rect x="7200" y="1500" width="100" height="100" fill="#FF4D4D" />
<rect x="7300" y="1500" width="100" height="100" fill="#FF4D4D" />
<rect x="7600" y="1500" width="100" height="100" fill="#FF5050" />
<rect x="7700" y="1500" width="100" height="100" fill="#FF4D4D" />
<rect x="7800" y="1500" width="100" height="100" fill="#FF4D4D" />
<rect x="7900" y="1500" width="100" height="100" fill="#FF4D4D" />
<rect x="8300" y="1500" width="100" height="100" fill="#FF4D4D" />
<rect x="8400" y="1500" width="100" height="100" fill="#FF4D4D" />
<rect x="8500" y="1500" width="100" height="100" fill="#FF4D4D" />
<rect x="100" y="1600" width="100" height="100" fill="#FF4D4D" />
<rect x="200" y="1600" width="100" height="100" fill="#FF4D4D" />
<rect x="300" y="1600" width="100" height="100" fill="#FF4D4D" />
<rect x="400" y="1600" width="100" height="100" fill="#FF4D4D" />
<rect x="500" y="1600" width="100" height="100" fill="#FF4D4D" />
<rect x="600" y="1600" width="100" height="100" fill="#FF4D4D" />
<rect x="1400" y="1600" width="100" height="100" fill="#FF4D4D" />
<rect x="1500" y="1600" width="100" height="100" fill="#FF4D4D" />
<rect x="1600" y="1600" width="100" height="100" fill="#FF4D4D" />
<rect x="2100" y="1600" width="100" height="100" fill="#FF4D4D" />
<rect x="2200" y="1600" width="100" height="100" fill="#FF4D4D" />
<rect x="6100" y="1600" width="100" height="100" fill="#FF4D4D" />
<rect x="6200" y="1600" width="100" height="100" fill="#FF4D4D" />
<rect x="0" y="1700" width="100" height="100" fill="#FF4D4D" />
<rect x="100" y="1700" width="100" height="100" fill="#FF4D4D" />
<rect x="200" y="1700" width="100" height="100" fill="#FF4D4D" />
<rect x="300" y="1700" width="100" height="100" fill="#FF4D4D" />
<rect x="400" y="1700" width="100" height="100" fill="#FF4D4D" />
<rect x="500" y="1700" width="100" height="100" fill="#FF4D4D" />
<rect x="1400" y="1700" width="100" height="100" fill="#FF4D4D" />
<rect x="1500" y="1700" width="100" height="100" fill="#FF4D4D" />
<rect x="1600" y="1700" width="100" height="100" fill="#FF4D4D" />
<rect x="1700" y="1700" width="100" height="100" fill="#FF4F4F" />
<rect x="2100" y="1700" width="100" height="100" fill="#FF4D4D" />
<rect x="2200" y="1700" width="100" height="100" fill="#FF4D4D" />
<rect x="1500" y="1800" width="100" height="100" fill="#FF4D4D" />
<rect x="1600" y="1800" width="100" height="100" fill="#FF4D4D" />
<rect x="1700" y="1800" width="100" height="100" fill="#FF4D4D" />
<rect x="1800" y="1800" width="100" height="100" fill="#FF5050" />
<rect x="2100" y="1800" width="100" height="100" fill="#FF4D4D" />
<rect x="2200" y="1800" width="100" height="100" fill="#FF4D4D" />
<rect x="1600" y="1900" width="100" height="100" fill="#FF4D4D" />
<rect x="1700" y="1900" width="100" height="100" fill="#FF4D4D" />
<rect x="1800" y="1900" width="100" height="100" fill="#FF4D4D" />
<rect x="1900" y="1900" width="100" height="100" fill="#FF5E5E" />
<rect x="2100" y="1900" width="100" height="100" fill="#FF4D4D" />
<rect x="2200" y="1900" width="100" height="100" fill="#FF4D4D" />
<rect x="2100" y="2000" width="100" height="100" fill="#FF5454" />
<rect x="2200" y="2000" width="100" height="100" fill="#FF4D4D" />
</svg>